<mxfile host="app.diagrams.net" modified="2022-03-30T11:54:53.264Z" agent="5.0 (Windows NT 10.0; Win64; x64) AppleWebKit/537.36 (KHTML, like Gecko) Chrome/99.0.4844.74 Safari/537.36 Edg/99.0.1150.55" etag="1JKZHZ7drcxB5sKiute0" version="17.2.6" type="github">
  <diagram id="R2lEEEUBdFMjLlhIrx00" name="Page-1">
    <mxGraphModel dx="2379" dy="701" grid="0" gridSize="10" guides="1" tooltips="1" connect="1" arrows="1" fold="1" page="0" pageScale="1" pageWidth="850" pageHeight="1100" background="#ffffff" math="0" shadow="0" extFonts="Permanent Marker^https://fonts.googleapis.com/css?family=Permanent+Marker">
      <root>
        <mxCell id="0" />
        <mxCell id="1" parent="0" />
        <mxCell id="CRIsoeaPm788Cyf2TmOQ-90" value="" style="edgeStyle=orthogonalEdgeStyle;rounded=0;sketch=0;jumpStyle=none;orthogonalLoop=1;jettySize=auto;html=1;endSize=6;targetPerimeterSpacing=0;exitX=0.5;exitY=1;exitDx=0;exitDy=0;fontColor=#1D3557;labelBackgroundColor=#F1FAEE;swimlaneLine=1;strokeColor=default;shadow=0;" parent="1" source="C-vyLk0tnHw3VtMMgP7b-2" target="CRIsoeaPm788Cyf2TmOQ-89" edge="1">
          <mxGeometry relative="1" as="geometry" />
        </mxCell>
        <mxCell id="C-vyLk0tnHw3VtMMgP7b-2" value="Admins" style="shape=table;startSize=30;container=1;collapsible=1;childLayout=tableLayout;fixedRows=1;rowLines=0;fontStyle=1;align=center;resizeLast=1;rounded=0;sketch=0;swimlaneLine=1;strokeColor=default;shadow=0;fillColor=#DEB37C;" parent="1" vertex="1">
          <mxGeometry x="333" y="331" width="250" height="180" as="geometry" />
        </mxCell>
        <mxCell id="C-vyLk0tnHw3VtMMgP7b-3" value="" style="shape=partialRectangle;collapsible=0;dropTarget=0;pointerEvents=0;points=[[0,0.5],[1,0.5]];portConstraint=eastwest;top=0;left=0;right=0;bottom=1;rounded=1;sketch=0;swimlaneLine=1;strokeColor=default;shadow=0;" parent="C-vyLk0tnHw3VtMMgP7b-2" vertex="1">
          <mxGeometry y="30" width="250" height="30" as="geometry" />
        </mxCell>
        <mxCell id="C-vyLk0tnHw3VtMMgP7b-4" value="PK" style="shape=partialRectangle;overflow=hidden;connectable=0;top=0;left=0;bottom=0;right=0;fontStyle=1;rounded=1;sketch=0;swimlaneLine=1;strokeColor=default;shadow=0;" parent="C-vyLk0tnHw3VtMMgP7b-3" vertex="1">
          <mxGeometry width="30" height="30" as="geometry">
            <mxRectangle width="30" height="30" as="alternateBounds" />
          </mxGeometry>
        </mxCell>
        <mxCell id="C-vyLk0tnHw3VtMMgP7b-5" value="admin_int NOT NULL " style="shape=partialRectangle;overflow=hidden;connectable=0;top=0;left=0;bottom=0;right=0;align=left;spacingLeft=6;fontStyle=5;rounded=1;sketch=0;swimlaneLine=1;strokeColor=default;shadow=0;" parent="C-vyLk0tnHw3VtMMgP7b-3" vertex="1">
          <mxGeometry x="30" width="220" height="30" as="geometry">
            <mxRectangle width="220" height="30" as="alternateBounds" />
          </mxGeometry>
        </mxCell>
        <mxCell id="C-vyLk0tnHw3VtMMgP7b-6" value="" style="shape=partialRectangle;collapsible=0;dropTarget=0;pointerEvents=0;points=[[0,0.5],[1,0.5]];portConstraint=eastwest;top=0;left=0;right=0;bottom=0;rounded=1;sketch=0;swimlaneLine=1;strokeColor=default;shadow=0;" parent="C-vyLk0tnHw3VtMMgP7b-2" vertex="1">
          <mxGeometry y="60" width="250" height="30" as="geometry" />
        </mxCell>
        <mxCell id="C-vyLk0tnHw3VtMMgP7b-7" value="" style="shape=partialRectangle;overflow=hidden;connectable=0;top=0;left=0;bottom=0;right=0;rounded=1;sketch=0;swimlaneLine=1;strokeColor=default;shadow=0;" parent="C-vyLk0tnHw3VtMMgP7b-6" vertex="1">
          <mxGeometry width="30" height="30" as="geometry">
            <mxRectangle width="30" height="30" as="alternateBounds" />
          </mxGeometry>
        </mxCell>
        <mxCell id="C-vyLk0tnHw3VtMMgP7b-8" value="admin_name char(50) NOT NULL" style="shape=partialRectangle;overflow=hidden;connectable=0;top=0;left=0;bottom=0;right=0;align=left;spacingLeft=6;rounded=1;sketch=0;swimlaneLine=1;strokeColor=default;shadow=0;" parent="C-vyLk0tnHw3VtMMgP7b-6" vertex="1">
          <mxGeometry x="30" width="220" height="30" as="geometry">
            <mxRectangle width="220" height="30" as="alternateBounds" />
          </mxGeometry>
        </mxCell>
        <mxCell id="CRIsoeaPm788Cyf2TmOQ-95" value="" style="shape=partialRectangle;collapsible=0;dropTarget=0;pointerEvents=0;points=[[0,0.5],[1,0.5]];portConstraint=eastwest;top=0;left=0;right=0;bottom=0;rounded=1;sketch=0;swimlaneLine=1;strokeColor=default;shadow=0;" parent="C-vyLk0tnHw3VtMMgP7b-2" vertex="1">
          <mxGeometry y="90" width="250" height="30" as="geometry" />
        </mxCell>
        <mxCell id="CRIsoeaPm788Cyf2TmOQ-96" value="" style="shape=partialRectangle;overflow=hidden;connectable=0;top=0;left=0;bottom=0;right=0;rounded=1;sketch=0;swimlaneLine=1;strokeColor=default;shadow=0;" parent="CRIsoeaPm788Cyf2TmOQ-95" vertex="1">
          <mxGeometry width="30" height="30" as="geometry">
            <mxRectangle width="30" height="30" as="alternateBounds" />
          </mxGeometry>
        </mxCell>
        <mxCell id="CRIsoeaPm788Cyf2TmOQ-97" value="admin_user char(50) NOT NULL" style="shape=partialRectangle;overflow=hidden;connectable=0;top=0;left=0;bottom=0;right=0;align=left;spacingLeft=6;rounded=1;sketch=0;swimlaneLine=1;strokeColor=default;shadow=0;" parent="CRIsoeaPm788Cyf2TmOQ-95" vertex="1">
          <mxGeometry x="30" width="220" height="30" as="geometry">
            <mxRectangle width="220" height="30" as="alternateBounds" />
          </mxGeometry>
        </mxCell>
        <mxCell id="C-vyLk0tnHw3VtMMgP7b-9" value="" style="shape=partialRectangle;collapsible=0;dropTarget=0;pointerEvents=0;points=[[0,0.5],[1,0.5]];portConstraint=eastwest;top=0;left=0;right=0;bottom=0;rounded=1;sketch=0;swimlaneLine=1;strokeColor=default;shadow=0;" parent="C-vyLk0tnHw3VtMMgP7b-2" vertex="1">
          <mxGeometry y="120" width="250" height="30" as="geometry" />
        </mxCell>
        <mxCell id="C-vyLk0tnHw3VtMMgP7b-10" value="" style="shape=partialRectangle;overflow=hidden;connectable=0;top=0;left=0;bottom=0;right=0;rounded=1;sketch=0;swimlaneLine=1;strokeColor=default;shadow=0;" parent="C-vyLk0tnHw3VtMMgP7b-9" vertex="1">
          <mxGeometry width="30" height="30" as="geometry">
            <mxRectangle width="30" height="30" as="alternateBounds" />
          </mxGeometry>
        </mxCell>
        <mxCell id="C-vyLk0tnHw3VtMMgP7b-11" value="admin_password char(50) NOT NULL" style="shape=partialRectangle;overflow=hidden;connectable=0;top=0;left=0;bottom=0;right=0;align=left;spacingLeft=6;rounded=1;sketch=0;swimlaneLine=1;strokeColor=default;shadow=0;" parent="C-vyLk0tnHw3VtMMgP7b-9" vertex="1">
          <mxGeometry x="30" width="220" height="30" as="geometry">
            <mxRectangle width="220" height="30" as="alternateBounds" />
          </mxGeometry>
        </mxCell>
        <mxCell id="CRIsoeaPm788Cyf2TmOQ-65" value="" style="shape=partialRectangle;collapsible=0;dropTarget=0;pointerEvents=0;points=[[0,0.5],[1,0.5]];portConstraint=eastwest;top=0;left=0;right=0;bottom=0;rounded=1;sketch=0;swimlaneLine=1;strokeColor=default;shadow=0;" parent="C-vyLk0tnHw3VtMMgP7b-2" vertex="1">
          <mxGeometry y="150" width="250" height="30" as="geometry" />
        </mxCell>
        <mxCell id="CRIsoeaPm788Cyf2TmOQ-66" value="FK" style="shape=partialRectangle;overflow=hidden;connectable=0;top=0;left=0;bottom=0;right=0;rounded=1;sketch=0;swimlaneLine=1;strokeColor=default;shadow=0;" parent="CRIsoeaPm788Cyf2TmOQ-65" vertex="1">
          <mxGeometry width="30" height="30" as="geometry">
            <mxRectangle width="30" height="30" as="alternateBounds" />
          </mxGeometry>
        </mxCell>
        <mxCell id="CRIsoeaPm788Cyf2TmOQ-67" value="position_id char(50) NOT NULL" style="shape=partialRectangle;overflow=hidden;connectable=0;top=0;left=0;bottom=0;right=0;align=left;spacingLeft=6;rounded=1;sketch=0;swimlaneLine=1;strokeColor=default;shadow=0;" parent="CRIsoeaPm788Cyf2TmOQ-65" vertex="1">
          <mxGeometry x="30" width="220" height="30" as="geometry">
            <mxRectangle width="220" height="30" as="alternateBounds" />
          </mxGeometry>
        </mxCell>
        <mxCell id="C-vyLk0tnHw3VtMMgP7b-23" value="Employees" style="shape=table;startSize=30;container=1;collapsible=1;childLayout=tableLayout;fixedRows=1;rowLines=0;fontStyle=1;align=center;resizeLast=1;rounded=0;sketch=0;swimlaneLine=1;strokeColor=default;shadow=0;fillColor=#DEB37C;" parent="1" vertex="1">
          <mxGeometry x="-150" y="340" width="262" height="211" as="geometry" />
        </mxCell>
        <mxCell id="C-vyLk0tnHw3VtMMgP7b-24" value="" style="shape=partialRectangle;collapsible=0;dropTarget=0;pointerEvents=0;points=[[0,0.5],[1,0.5]];portConstraint=eastwest;top=0;left=0;right=0;bottom=1;rounded=1;sketch=0;swimlaneLine=1;strokeColor=default;shadow=0;" parent="C-vyLk0tnHw3VtMMgP7b-23" vertex="1">
          <mxGeometry y="30" width="262" height="30" as="geometry" />
        </mxCell>
        <mxCell id="C-vyLk0tnHw3VtMMgP7b-25" value="PK" style="shape=partialRectangle;overflow=hidden;connectable=0;top=0;left=0;bottom=0;right=0;fontStyle=1;rounded=1;sketch=0;swimlaneLine=1;strokeColor=default;shadow=0;" parent="C-vyLk0tnHw3VtMMgP7b-24" vertex="1">
          <mxGeometry width="30" height="30" as="geometry">
            <mxRectangle width="30" height="30" as="alternateBounds" />
          </mxGeometry>
        </mxCell>
        <mxCell id="C-vyLk0tnHw3VtMMgP7b-26" value="employee_id int NOT NULL " style="shape=partialRectangle;overflow=hidden;connectable=0;top=0;left=0;bottom=0;right=0;align=left;spacingLeft=6;fontStyle=5;rounded=1;sketch=0;swimlaneLine=1;strokeColor=default;shadow=0;" parent="C-vyLk0tnHw3VtMMgP7b-24" vertex="1">
          <mxGeometry x="30" width="232" height="30" as="geometry">
            <mxRectangle width="232" height="30" as="alternateBounds" />
          </mxGeometry>
        </mxCell>
        <mxCell id="C-vyLk0tnHw3VtMMgP7b-27" value="" style="shape=partialRectangle;collapsible=0;dropTarget=0;pointerEvents=0;points=[[0,0.5],[1,0.5]];portConstraint=eastwest;top=0;left=0;right=0;bottom=0;rounded=1;sketch=0;swimlaneLine=1;strokeColor=default;shadow=0;" parent="C-vyLk0tnHw3VtMMgP7b-23" vertex="1">
          <mxGeometry y="60" width="262" height="30" as="geometry" />
        </mxCell>
        <mxCell id="C-vyLk0tnHw3VtMMgP7b-28" value="" style="shape=partialRectangle;overflow=hidden;connectable=0;top=0;left=0;bottom=0;right=0;rounded=1;sketch=0;swimlaneLine=1;strokeColor=default;shadow=0;" parent="C-vyLk0tnHw3VtMMgP7b-27" vertex="1">
          <mxGeometry width="30" height="30" as="geometry">
            <mxRectangle width="30" height="30" as="alternateBounds" />
          </mxGeometry>
        </mxCell>
        <mxCell id="C-vyLk0tnHw3VtMMgP7b-29" value="employee_name char(50) NOT NULL" style="shape=partialRectangle;overflow=hidden;connectable=0;top=0;left=0;bottom=0;right=0;align=left;spacingLeft=6;rounded=1;sketch=0;swimlaneLine=1;strokeColor=default;shadow=0;" parent="C-vyLk0tnHw3VtMMgP7b-27" vertex="1">
          <mxGeometry x="30" width="232" height="30" as="geometry">
            <mxRectangle width="232" height="30" as="alternateBounds" />
          </mxGeometry>
        </mxCell>
        <mxCell id="CRIsoeaPm788Cyf2TmOQ-42" value="" style="shape=partialRectangle;collapsible=0;dropTarget=0;pointerEvents=0;points=[[0,0.5],[1,0.5]];portConstraint=eastwest;top=0;left=0;right=0;bottom=0;rounded=1;sketch=0;swimlaneLine=1;strokeColor=default;shadow=0;" parent="C-vyLk0tnHw3VtMMgP7b-23" vertex="1">
          <mxGeometry y="90" width="262" height="30" as="geometry" />
        </mxCell>
        <mxCell id="CRIsoeaPm788Cyf2TmOQ-43" value="" style="shape=partialRectangle;overflow=hidden;connectable=0;top=0;left=0;bottom=0;right=0;rounded=1;sketch=0;swimlaneLine=1;strokeColor=default;shadow=0;" parent="CRIsoeaPm788Cyf2TmOQ-42" vertex="1">
          <mxGeometry width="30" height="30" as="geometry">
            <mxRectangle width="30" height="30" as="alternateBounds" />
          </mxGeometry>
        </mxCell>
        <mxCell id="CRIsoeaPm788Cyf2TmOQ-44" value="employee_password char(25) NOT NULL" style="shape=partialRectangle;overflow=hidden;connectable=0;top=0;left=0;bottom=0;right=0;align=left;spacingLeft=6;rounded=1;sketch=0;swimlaneLine=1;strokeColor=default;shadow=0;" parent="CRIsoeaPm788Cyf2TmOQ-42" vertex="1">
          <mxGeometry x="30" width="232" height="30" as="geometry">
            <mxRectangle width="232" height="30" as="alternateBounds" />
          </mxGeometry>
        </mxCell>
        <mxCell id="CRIsoeaPm788Cyf2TmOQ-62" value="" style="shape=partialRectangle;collapsible=0;dropTarget=0;pointerEvents=0;points=[[0,0.5],[1,0.5]];portConstraint=eastwest;top=0;left=0;right=0;bottom=0;rounded=1;sketch=0;swimlaneLine=1;strokeColor=default;shadow=0;" parent="C-vyLk0tnHw3VtMMgP7b-23" vertex="1">
          <mxGeometry y="120" width="262" height="30" as="geometry" />
        </mxCell>
        <mxCell id="CRIsoeaPm788Cyf2TmOQ-63" value="" style="shape=partialRectangle;overflow=hidden;connectable=0;top=0;left=0;bottom=0;right=0;rounded=1;sketch=0;swimlaneLine=1;strokeColor=default;shadow=0;" parent="CRIsoeaPm788Cyf2TmOQ-62" vertex="1">
          <mxGeometry width="30" height="30" as="geometry">
            <mxRectangle width="30" height="30" as="alternateBounds" />
          </mxGeometry>
        </mxCell>
        <mxCell id="CRIsoeaPm788Cyf2TmOQ-64" value="employee_cpf int NOT NULL" style="shape=partialRectangle;overflow=hidden;connectable=0;top=0;left=0;bottom=0;right=0;align=left;spacingLeft=6;rounded=1;sketch=0;swimlaneLine=1;strokeColor=default;shadow=0;" parent="CRIsoeaPm788Cyf2TmOQ-62" vertex="1">
          <mxGeometry x="30" width="232" height="30" as="geometry">
            <mxRectangle width="232" height="30" as="alternateBounds" />
          </mxGeometry>
        </mxCell>
        <mxCell id="CRIsoeaPm788Cyf2TmOQ-92" value="" style="shape=partialRectangle;collapsible=0;dropTarget=0;pointerEvents=0;points=[[0,0.5],[1,0.5]];portConstraint=eastwest;top=0;left=0;right=0;bottom=0;rounded=1;sketch=0;swimlaneLine=1;strokeColor=default;shadow=0;" parent="C-vyLk0tnHw3VtMMgP7b-23" vertex="1">
          <mxGeometry y="150" width="262" height="30" as="geometry" />
        </mxCell>
        <mxCell id="CRIsoeaPm788Cyf2TmOQ-93" value="" style="shape=partialRectangle;overflow=hidden;connectable=0;top=0;left=0;bottom=0;right=0;rounded=1;sketch=0;swimlaneLine=1;strokeColor=default;shadow=0;" parent="CRIsoeaPm788Cyf2TmOQ-92" vertex="1">
          <mxGeometry width="30" height="30" as="geometry">
            <mxRectangle width="30" height="30" as="alternateBounds" />
          </mxGeometry>
        </mxCell>
        <mxCell id="CRIsoeaPm788Cyf2TmOQ-94" value="employee_user int NOT NULL" style="shape=partialRectangle;overflow=hidden;connectable=0;top=0;left=0;bottom=0;right=0;align=left;spacingLeft=6;rounded=1;sketch=0;swimlaneLine=1;strokeColor=default;shadow=0;" parent="CRIsoeaPm788Cyf2TmOQ-92" vertex="1">
          <mxGeometry x="30" width="232" height="30" as="geometry">
            <mxRectangle width="232" height="30" as="alternateBounds" />
          </mxGeometry>
        </mxCell>
        <mxCell id="CRIsoeaPm788Cyf2TmOQ-55" value="" style="shape=partialRectangle;collapsible=0;dropTarget=0;pointerEvents=0;points=[[0,0.5],[1,0.5]];portConstraint=eastwest;top=0;left=0;right=0;bottom=0;rounded=1;sketch=0;swimlaneLine=1;strokeColor=default;shadow=0;" parent="C-vyLk0tnHw3VtMMgP7b-23" vertex="1">
          <mxGeometry y="180" width="262" height="30" as="geometry" />
        </mxCell>
        <mxCell id="CRIsoeaPm788Cyf2TmOQ-56" value="FK" style="shape=partialRectangle;overflow=hidden;connectable=0;top=0;left=0;bottom=0;right=0;rounded=1;sketch=0;swimlaneLine=1;strokeColor=default;shadow=0;" parent="CRIsoeaPm788Cyf2TmOQ-55" vertex="1">
          <mxGeometry width="30" height="30" as="geometry">
            <mxRectangle width="30" height="30" as="alternateBounds" />
          </mxGeometry>
        </mxCell>
        <mxCell id="CRIsoeaPm788Cyf2TmOQ-57" value="admin_id int NOT NULL" style="shape=partialRectangle;overflow=hidden;connectable=0;top=0;left=0;bottom=0;right=0;align=left;spacingLeft=6;rounded=1;sketch=0;swimlaneLine=1;strokeColor=default;shadow=0;" parent="CRIsoeaPm788Cyf2TmOQ-55" vertex="1">
          <mxGeometry x="30" width="232" height="30" as="geometry">
            <mxRectangle width="232" height="30" as="alternateBounds" />
          </mxGeometry>
        </mxCell>
        <mxCell id="CRIsoeaPm788Cyf2TmOQ-2" value="Clients" style="shape=table;startSize=30;container=1;collapsible=1;childLayout=tableLayout;fixedRows=1;rowLines=0;fontStyle=1;align=center;resizeLast=1;rounded=0;sketch=0;swimlaneLine=1;strokeColor=default;shadow=0;fillColor=#DEB37C;" parent="1" vertex="1">
          <mxGeometry x="-150" y="604" width="262" height="120" as="geometry" />
        </mxCell>
        <mxCell id="CRIsoeaPm788Cyf2TmOQ-3" value="" style="shape=partialRectangle;collapsible=0;dropTarget=0;pointerEvents=0;points=[[0,0.5],[1,0.5]];portConstraint=eastwest;top=0;left=0;right=0;bottom=1;rounded=1;sketch=0;swimlaneLine=1;strokeColor=default;shadow=0;" parent="CRIsoeaPm788Cyf2TmOQ-2" vertex="1">
          <mxGeometry y="30" width="262" height="30" as="geometry" />
        </mxCell>
        <mxCell id="CRIsoeaPm788Cyf2TmOQ-4" value="PK" style="shape=partialRectangle;overflow=hidden;connectable=0;top=0;left=0;bottom=0;right=0;fontStyle=1;rounded=1;sketch=0;swimlaneLine=1;strokeColor=default;shadow=0;" parent="CRIsoeaPm788Cyf2TmOQ-3" vertex="1">
          <mxGeometry width="30" height="30" as="geometry">
            <mxRectangle width="30" height="30" as="alternateBounds" />
          </mxGeometry>
        </mxCell>
        <mxCell id="CRIsoeaPm788Cyf2TmOQ-5" value="client_id int NOT NULL " style="shape=partialRectangle;overflow=hidden;connectable=0;top=0;left=0;bottom=0;right=0;align=left;spacingLeft=6;fontStyle=5;rounded=1;sketch=0;swimlaneLine=1;strokeColor=default;shadow=0;" parent="CRIsoeaPm788Cyf2TmOQ-3" vertex="1">
          <mxGeometry x="30" width="232" height="30" as="geometry">
            <mxRectangle width="232" height="30" as="alternateBounds" />
          </mxGeometry>
        </mxCell>
        <mxCell id="CRIsoeaPm788Cyf2TmOQ-6" value="" style="shape=partialRectangle;collapsible=0;dropTarget=0;pointerEvents=0;points=[[0,0.5],[1,0.5]];portConstraint=eastwest;top=0;left=0;right=0;bottom=0;rounded=1;sketch=0;swimlaneLine=1;strokeColor=default;shadow=0;" parent="CRIsoeaPm788Cyf2TmOQ-2" vertex="1">
          <mxGeometry y="60" width="262" height="30" as="geometry" />
        </mxCell>
        <mxCell id="CRIsoeaPm788Cyf2TmOQ-7" value="" style="shape=partialRectangle;overflow=hidden;connectable=0;top=0;left=0;bottom=0;right=0;rounded=1;sketch=0;swimlaneLine=1;strokeColor=default;shadow=0;" parent="CRIsoeaPm788Cyf2TmOQ-6" vertex="1">
          <mxGeometry width="30" height="30" as="geometry">
            <mxRectangle width="30" height="30" as="alternateBounds" />
          </mxGeometry>
        </mxCell>
        <mxCell id="CRIsoeaPm788Cyf2TmOQ-8" value="client_name char(50) NOT NULL" style="shape=partialRectangle;overflow=hidden;connectable=0;top=0;left=0;bottom=0;right=0;align=left;spacingLeft=6;rounded=1;sketch=0;swimlaneLine=1;strokeColor=default;shadow=0;" parent="CRIsoeaPm788Cyf2TmOQ-6" vertex="1">
          <mxGeometry x="30" width="232" height="30" as="geometry">
            <mxRectangle width="232" height="30" as="alternateBounds" />
          </mxGeometry>
        </mxCell>
        <mxCell id="CRIsoeaPm788Cyf2TmOQ-51" value="" style="shape=partialRectangle;collapsible=0;dropTarget=0;pointerEvents=0;points=[[0,0.5],[1,0.5]];portConstraint=eastwest;top=0;left=0;right=0;bottom=0;rounded=1;sketch=0;swimlaneLine=1;strokeColor=default;shadow=0;" parent="CRIsoeaPm788Cyf2TmOQ-2" vertex="1">
          <mxGeometry y="90" width="262" height="30" as="geometry" />
        </mxCell>
        <mxCell id="CRIsoeaPm788Cyf2TmOQ-52" value="" style="shape=partialRectangle;overflow=hidden;connectable=0;top=0;left=0;bottom=0;right=0;rounded=1;sketch=0;swimlaneLine=1;strokeColor=default;shadow=0;" parent="CRIsoeaPm788Cyf2TmOQ-51" vertex="1">
          <mxGeometry width="30" height="30" as="geometry">
            <mxRectangle width="30" height="30" as="alternateBounds" />
          </mxGeometry>
        </mxCell>
        <mxCell id="CRIsoeaPm788Cyf2TmOQ-53" value="client_address char(50) NOT NULL" style="shape=partialRectangle;overflow=hidden;connectable=0;top=0;left=0;bottom=0;right=0;align=left;spacingLeft=6;rounded=1;sketch=0;swimlaneLine=1;strokeColor=default;shadow=0;" parent="CRIsoeaPm788Cyf2TmOQ-51" vertex="1">
          <mxGeometry x="30" width="232" height="30" as="geometry">
            <mxRectangle width="232" height="30" as="alternateBounds" />
          </mxGeometry>
        </mxCell>
        <mxCell id="CRIsoeaPm788Cyf2TmOQ-35" value="1:N" style="shape=rhombus;perimeter=rhombusPerimeter;whiteSpace=wrap;html=1;align=center;shadow=0;rounded=0;sketch=0;swimlaneLine=1;strokeColor=default;" parent="1" vertex="1">
          <mxGeometry x="-330" y="415.5" width="120" height="60" as="geometry" />
        </mxCell>
        <mxCell id="CRIsoeaPm788Cyf2TmOQ-37" value="1:N" style="shape=rhombus;perimeter=rhombusPerimeter;whiteSpace=wrap;html=1;align=center;shadow=0;rounded=0;sketch=0;swimlaneLine=1;strokeColor=default;" parent="1" vertex="1">
          <mxGeometry x="-334" y="619" width="120" height="60" as="geometry" />
        </mxCell>
        <mxCell id="CRIsoeaPm788Cyf2TmOQ-73" value="1:N" style="shape=rhombus;perimeter=rhombusPerimeter;whiteSpace=wrap;html=1;align=center;shadow=0;rounded=0;sketch=0;swimlaneLine=1;strokeColor=default;" parent="1" vertex="1">
          <mxGeometry x="163" y="415.5" width="120" height="60" as="geometry" />
        </mxCell>
        <mxCell id="CRIsoeaPm788Cyf2TmOQ-75" value="Positions" style="shape=table;startSize=30;container=1;collapsible=1;childLayout=tableLayout;fixedRows=1;rowLines=0;fontStyle=1;align=center;resizeLast=1;rounded=0;sketch=0;swimlaneLine=1;strokeColor=default;shadow=0;columnLines=1;fillColor=#DEB37C;" parent="1" vertex="1">
          <mxGeometry x="333" y="733" width="250" height="90" as="geometry" />
        </mxCell>
        <mxCell id="CRIsoeaPm788Cyf2TmOQ-76" value="" style="shape=partialRectangle;collapsible=0;dropTarget=0;pointerEvents=0;points=[[0,0.5],[1,0.5]];portConstraint=eastwest;top=0;left=0;right=0;bottom=1;rounded=1;sketch=0;swimlaneLine=1;strokeColor=default;shadow=0;" parent="CRIsoeaPm788Cyf2TmOQ-75" vertex="1">
          <mxGeometry y="30" width="250" height="30" as="geometry" />
        </mxCell>
        <mxCell id="CRIsoeaPm788Cyf2TmOQ-77" value="PK" style="shape=partialRectangle;overflow=hidden;connectable=0;top=0;left=0;bottom=0;right=0;fontStyle=1;rounded=1;sketch=0;swimlaneLine=1;strokeColor=default;shadow=0;" parent="CRIsoeaPm788Cyf2TmOQ-76" vertex="1">
          <mxGeometry width="30" height="30" as="geometry">
            <mxRectangle width="30" height="30" as="alternateBounds" />
          </mxGeometry>
        </mxCell>
        <mxCell id="CRIsoeaPm788Cyf2TmOQ-78" value="position_id int NOT NULL " style="shape=partialRectangle;overflow=hidden;connectable=0;top=0;left=0;bottom=0;right=0;align=left;spacingLeft=6;fontStyle=5;rounded=1;sketch=0;swimlaneLine=1;strokeColor=default;shadow=0;" parent="CRIsoeaPm788Cyf2TmOQ-76" vertex="1">
          <mxGeometry x="30" width="220" height="30" as="geometry">
            <mxRectangle width="220" height="30" as="alternateBounds" />
          </mxGeometry>
        </mxCell>
        <mxCell id="CRIsoeaPm788Cyf2TmOQ-79" value="" style="shape=partialRectangle;collapsible=0;dropTarget=0;pointerEvents=0;points=[[0,0.5],[1,0.5]];portConstraint=eastwest;top=0;left=0;right=0;bottom=0;rounded=1;sketch=0;swimlaneLine=1;strokeColor=default;shadow=0;" parent="CRIsoeaPm788Cyf2TmOQ-75" vertex="1">
          <mxGeometry y="60" width="250" height="30" as="geometry" />
        </mxCell>
        <mxCell id="CRIsoeaPm788Cyf2TmOQ-80" value="" style="shape=partialRectangle;overflow=hidden;connectable=0;top=0;left=0;bottom=0;right=0;rounded=1;sketch=0;swimlaneLine=1;strokeColor=default;shadow=0;" parent="CRIsoeaPm788Cyf2TmOQ-79" vertex="1">
          <mxGeometry width="30" height="30" as="geometry">
            <mxRectangle width="30" height="30" as="alternateBounds" />
          </mxGeometry>
        </mxCell>
        <mxCell id="CRIsoeaPm788Cyf2TmOQ-81" value="user_name char(50) NOT NULL" style="shape=partialRectangle;overflow=hidden;connectable=0;top=0;left=0;bottom=0;right=0;align=left;spacingLeft=6;rounded=1;sketch=0;swimlaneLine=1;strokeColor=default;shadow=0;" parent="CRIsoeaPm788Cyf2TmOQ-79" vertex="1">
          <mxGeometry x="30" width="220" height="30" as="geometry">
            <mxRectangle width="220" height="30" as="alternateBounds" />
          </mxGeometry>
        </mxCell>
        <mxCell id="CRIsoeaPm788Cyf2TmOQ-89" value="1:N" style="rhombus;whiteSpace=wrap;html=1;startSize=30;fontStyle=1;rounded=0;sketch=0;swimlaneLine=1;strokeColor=default;shadow=0;" parent="1" vertex="1">
          <mxGeometry x="393" y="569" width="130" height="63" as="geometry" />
        </mxCell>
        <mxCell id="CRIsoeaPm788Cyf2TmOQ-91" value="" style="edgeStyle=orthogonalEdgeStyle;rounded=0;sketch=0;jumpStyle=none;orthogonalLoop=1;jettySize=auto;html=1;endSize=6;targetPerimeterSpacing=0;exitX=0.5;exitY=1;exitDx=0;exitDy=0;entryX=0.5;entryY=0;entryDx=0;entryDy=0;fontColor=#1D3557;labelBackgroundColor=#F1FAEE;swimlaneLine=1;strokeColor=default;shadow=0;" parent="1" source="CRIsoeaPm788Cyf2TmOQ-89" target="CRIsoeaPm788Cyf2TmOQ-75" edge="1">
          <mxGeometry relative="1" as="geometry">
            <mxPoint x="498.05882352941217" y="749" as="sourcePoint" />
            <mxPoint x="563" y="849" as="targetPoint" />
          </mxGeometry>
        </mxCell>
        <mxCell id="ZPuTRuE9zy1D4dM8rrTx-1" value="" style="edgeStyle=orthogonalEdgeStyle;rounded=0;sketch=0;jumpStyle=none;orthogonalLoop=1;jettySize=auto;html=1;endSize=6;targetPerimeterSpacing=0;fontColor=#1D3557;labelBackgroundColor=#F1FAEE;swimlaneLine=1;strokeColor=default;shadow=0;entryX=1;entryY=0.5;entryDx=0;entryDy=0;" parent="1" target="CRIsoeaPm788Cyf2TmOQ-73" edge="1">
          <mxGeometry relative="1" as="geometry">
            <mxPoint x="332" y="446" as="sourcePoint" />
            <mxPoint x="330" y="379" as="targetPoint" />
          </mxGeometry>
        </mxCell>
        <mxCell id="ZPuTRuE9zy1D4dM8rrTx-2" value="" style="edgeStyle=orthogonalEdgeStyle;rounded=0;sketch=0;jumpStyle=none;orthogonalLoop=1;jettySize=auto;html=1;endSize=6;targetPerimeterSpacing=0;exitX=1;exitY=0.5;exitDx=0;exitDy=0;fontColor=#1D3557;labelBackgroundColor=#F1FAEE;entryX=0;entryY=0.5;entryDx=0;entryDy=0;swimlaneLine=1;strokeColor=default;shadow=0;" parent="1" source="C-vyLk0tnHw3VtMMgP7b-23" target="CRIsoeaPm788Cyf2TmOQ-73" edge="1">
          <mxGeometry relative="1" as="geometry">
            <mxPoint x="-230" y="220" as="sourcePoint" />
            <mxPoint x="190" y="440" as="targetPoint" />
          </mxGeometry>
        </mxCell>
        <mxCell id="ZPuTRuE9zy1D4dM8rrTx-3" value="1,1" style="text;html=1;align=center;verticalAlign=middle;whiteSpace=wrap;rounded=0;swimlaneLine=1;strokeColor=none;sketch=0;shadow=0;" parent="1" vertex="1">
          <mxGeometry x="-433" y="468" width="60" height="30" as="geometry" />
        </mxCell>
        <mxCell id="ZPuTRuE9zy1D4dM8rrTx-5" value="0,n" style="text;html=1;align=center;verticalAlign=middle;whiteSpace=wrap;rounded=0;rotation=0;swimlaneLine=1;strokeColor=none;sketch=0;shadow=0;" parent="1" vertex="1">
          <mxGeometry x="-200" y="420" width="60" height="30" as="geometry" />
        </mxCell>
        <mxCell id="ZPuTRuE9zy1D4dM8rrTx-6" value="1,1" style="text;html=1;align=center;verticalAlign=middle;whiteSpace=wrap;rounded=0;swimlaneLine=1;strokeColor=none;sketch=0;shadow=0;" parent="1" vertex="1">
          <mxGeometry x="-394" y="649" width="60" height="30" as="geometry" />
        </mxCell>
        <mxCell id="ZPuTRuE9zy1D4dM8rrTx-7" value="0,n" style="text;html=1;align=center;verticalAlign=middle;whiteSpace=wrap;rounded=0;swimlaneLine=1;strokeColor=none;sketch=0;shadow=0;" parent="1" vertex="1">
          <mxGeometry x="-150" y="670" width="60" height="30" as="geometry" />
        </mxCell>
        <mxCell id="ZPuTRuE9zy1D4dM8rrTx-8" value="1,1" style="text;html=1;align=center;verticalAlign=middle;whiteSpace=wrap;rounded=0;swimlaneLine=1;strokeColor=none;sketch=0;shadow=0;" parent="1" vertex="1">
          <mxGeometry x="103" y="420" width="60" height="30" as="geometry" />
        </mxCell>
        <mxCell id="ZPuTRuE9zy1D4dM8rrTx-9" value="0,n" style="text;html=1;align=center;verticalAlign=middle;whiteSpace=wrap;rounded=0;swimlaneLine=1;strokeColor=none;sketch=0;shadow=0;" parent="1" vertex="1">
          <mxGeometry x="283" y="420" width="60" height="30" as="geometry" />
        </mxCell>
        <mxCell id="ZPuTRuE9zy1D4dM8rrTx-10" value="1,1" style="text;html=1;align=center;verticalAlign=middle;whiteSpace=wrap;rounded=0;swimlaneLine=1;strokeColor=none;sketch=0;shadow=0;" parent="1" vertex="1">
          <mxGeometry x="445" y="519" width="60" height="30" as="geometry" />
        </mxCell>
        <mxCell id="ZPuTRuE9zy1D4dM8rrTx-11" value="0,n" style="text;html=1;align=center;verticalAlign=middle;whiteSpace=wrap;rounded=0;swimlaneLine=1;strokeColor=none;sketch=0;shadow=0;" parent="1" vertex="1">
          <mxGeometry x="443" y="648" width="60" height="30" as="geometry" />
        </mxCell>
        <mxCell id="-E1fyEVvudLfWsq4Qym8-1" value="" style="edgeStyle=orthogonalEdgeStyle;rounded=0;sketch=0;jumpStyle=none;orthogonalLoop=1;jettySize=auto;html=1;endSize=6;targetPerimeterSpacing=0;exitX=0;exitY=0.5;exitDx=0;exitDy=0;fontColor=#1D3557;labelBackgroundColor=#F1FAEE;entryX=1;entryY=0.5;entryDx=0;entryDy=0;swimlaneLine=1;strokeColor=default;shadow=0;" parent="1" source="CRIsoeaPm788Cyf2TmOQ-3" target="CRIsoeaPm788Cyf2TmOQ-37" edge="1">
          <mxGeometry relative="1" as="geometry">
            <mxPoint x="-320" y="895" as="sourcePoint" />
            <mxPoint x="-220" y="720" as="targetPoint" />
          </mxGeometry>
        </mxCell>
        <mxCell id="-E1fyEVvudLfWsq4Qym8-2" value="" style="edgeStyle=orthogonalEdgeStyle;rounded=0;sketch=0;jumpStyle=none;orthogonalLoop=1;jettySize=auto;html=1;endSize=6;targetPerimeterSpacing=0;fontColor=#1D3557;labelBackgroundColor=#F1FAEE;swimlaneLine=1;strokeColor=default;shadow=0;exitX=1;exitY=0.5;exitDx=0;exitDy=0;" parent="1" source="-E1fyEVvudLfWsq4Qym8-12" target="CRIsoeaPm788Cyf2TmOQ-37" edge="1">
          <mxGeometry relative="1" as="geometry">
            <mxPoint x="-408" y="661" as="sourcePoint" />
            <mxPoint x="-259" y="768" as="targetPoint" />
          </mxGeometry>
        </mxCell>
        <mxCell id="-E1fyEVvudLfWsq4Qym8-3" value="" style="edgeStyle=orthogonalEdgeStyle;rounded=0;sketch=0;jumpStyle=none;orthogonalLoop=1;jettySize=auto;html=1;endSize=6;targetPerimeterSpacing=0;fontColor=#1D3557;labelBackgroundColor=#F1FAEE;entryX=0;entryY=0.5;entryDx=0;entryDy=0;exitX=1;exitY=0.5;exitDx=0;exitDy=0;swimlaneLine=1;strokeColor=default;shadow=0;" parent="1" source="-E1fyEVvudLfWsq4Qym8-9" target="CRIsoeaPm788Cyf2TmOQ-35" edge="1">
          <mxGeometry relative="1" as="geometry">
            <mxPoint x="-279" y="613" as="sourcePoint" />
            <mxPoint x="-399" y="430.5" as="targetPoint" />
          </mxGeometry>
        </mxCell>
        <mxCell id="-E1fyEVvudLfWsq4Qym8-4" value="" style="edgeStyle=orthogonalEdgeStyle;rounded=0;sketch=0;jumpStyle=none;orthogonalLoop=1;jettySize=auto;html=1;endSize=6;targetPerimeterSpacing=0;fontColor=#1D3557;labelBackgroundColor=#F1FAEE;swimlaneLine=1;strokeColor=default;shadow=0;entryX=1;entryY=0.5;entryDx=0;entryDy=0;exitX=0;exitY=0.5;exitDx=0;exitDy=0;" parent="1" source="CRIsoeaPm788Cyf2TmOQ-42" target="CRIsoeaPm788Cyf2TmOQ-35" edge="1">
          <mxGeometry relative="1" as="geometry">
            <mxPoint x="-211" y="400" as="sourcePoint" />
            <mxPoint x="-360" y="255" as="targetPoint" />
          </mxGeometry>
        </mxCell>
        <mxCell id="-E1fyEVvudLfWsq4Qym8-5" value="Logs" style="shape=table;startSize=30;container=1;collapsible=1;childLayout=tableLayout;fixedRows=1;rowLines=0;fontStyle=1;align=center;resizeLast=1;rounded=0;sketch=0;swimlaneLine=1;strokeColor=default;shadow=0;gradientColor=none;fillColor=#DEB37C;" parent="1" vertex="1">
          <mxGeometry x="-703" y="544" width="260" height="180" as="geometry" />
        </mxCell>
        <mxCell id="-E1fyEVvudLfWsq4Qym8-6" value="" style="shape=partialRectangle;collapsible=0;dropTarget=0;pointerEvents=0;points=[[0,0.5],[1,0.5]];portConstraint=eastwest;top=0;left=0;right=0;bottom=1;rounded=1;sketch=0;swimlaneLine=1;strokeColor=default;shadow=0;" parent="-E1fyEVvudLfWsq4Qym8-5" vertex="1">
          <mxGeometry y="30" width="260" height="30" as="geometry" />
        </mxCell>
        <mxCell id="-E1fyEVvudLfWsq4Qym8-7" value="PK" style="shape=partialRectangle;overflow=hidden;connectable=0;top=0;left=0;bottom=0;right=0;fontStyle=1;rounded=1;sketch=0;swimlaneLine=1;strokeColor=default;shadow=0;" parent="-E1fyEVvudLfWsq4Qym8-6" vertex="1">
          <mxGeometry width="30" height="30" as="geometry">
            <mxRectangle width="30" height="30" as="alternateBounds" />
          </mxGeometry>
        </mxCell>
        <mxCell id="-E1fyEVvudLfWsq4Qym8-8" value="log_id int NOT NULL " style="shape=partialRectangle;overflow=hidden;connectable=0;top=0;left=0;bottom=0;right=0;align=left;spacingLeft=6;fontStyle=5;rounded=1;sketch=0;swimlaneLine=1;strokeColor=default;shadow=0;" parent="-E1fyEVvudLfWsq4Qym8-6" vertex="1">
          <mxGeometry x="30" width="230" height="30" as="geometry">
            <mxRectangle width="230" height="30" as="alternateBounds" />
          </mxGeometry>
        </mxCell>
        <mxCell id="-E1fyEVvudLfWsq4Qym8-9" value="" style="shape=partialRectangle;collapsible=0;dropTarget=0;pointerEvents=0;points=[[0,0.5],[1,0.5]];portConstraint=eastwest;top=0;left=0;right=0;bottom=0;rounded=1;sketch=0;swimlaneLine=1;strokeColor=default;shadow=0;" parent="-E1fyEVvudLfWsq4Qym8-5" vertex="1">
          <mxGeometry y="60" width="260" height="30" as="geometry" />
        </mxCell>
        <mxCell id="-E1fyEVvudLfWsq4Qym8-10" value="FK" style="shape=partialRectangle;overflow=hidden;connectable=0;top=0;left=0;bottom=0;right=0;rounded=1;sketch=0;swimlaneLine=1;strokeColor=default;shadow=0;" parent="-E1fyEVvudLfWsq4Qym8-9" vertex="1">
          <mxGeometry width="30" height="30" as="geometry">
            <mxRectangle width="30" height="30" as="alternateBounds" />
          </mxGeometry>
        </mxCell>
        <mxCell id="-E1fyEVvudLfWsq4Qym8-11" value="employee_id int NOT NULL" style="shape=partialRectangle;overflow=hidden;connectable=0;top=0;left=0;bottom=0;right=0;align=left;spacingLeft=6;rounded=1;sketch=0;swimlaneLine=1;strokeColor=default;shadow=0;" parent="-E1fyEVvudLfWsq4Qym8-9" vertex="1">
          <mxGeometry x="30" width="230" height="30" as="geometry">
            <mxRectangle width="230" height="30" as="alternateBounds" />
          </mxGeometry>
        </mxCell>
        <mxCell id="-E1fyEVvudLfWsq4Qym8-12" value="" style="shape=partialRectangle;collapsible=0;dropTarget=0;pointerEvents=0;points=[[0,0.5],[1,0.5]];portConstraint=eastwest;top=0;left=0;right=0;bottom=0;rounded=1;sketch=0;swimlaneLine=1;strokeColor=default;shadow=0;" parent="-E1fyEVvudLfWsq4Qym8-5" vertex="1">
          <mxGeometry y="90" width="260" height="30" as="geometry" />
        </mxCell>
        <mxCell id="-E1fyEVvudLfWsq4Qym8-13" value="FK" style="shape=partialRectangle;overflow=hidden;connectable=0;top=0;left=0;bottom=0;right=0;rounded=1;sketch=0;swimlaneLine=1;strokeColor=default;shadow=0;" parent="-E1fyEVvudLfWsq4Qym8-12" vertex="1">
          <mxGeometry width="30" height="30" as="geometry">
            <mxRectangle width="30" height="30" as="alternateBounds" />
          </mxGeometry>
        </mxCell>
        <mxCell id="-E1fyEVvudLfWsq4Qym8-14" value="client_id int NOT NULL" style="shape=partialRectangle;overflow=hidden;connectable=0;top=0;left=0;bottom=0;right=0;align=left;spacingLeft=6;rounded=1;sketch=0;swimlaneLine=1;strokeColor=default;shadow=0;" parent="-E1fyEVvudLfWsq4Qym8-12" vertex="1">
          <mxGeometry x="30" width="230" height="30" as="geometry">
            <mxRectangle width="230" height="30" as="alternateBounds" />
          </mxGeometry>
        </mxCell>
        <mxCell id="-E1fyEVvudLfWsq4Qym8-15" value="" style="shape=partialRectangle;collapsible=0;dropTarget=0;pointerEvents=0;points=[[0,0.5],[1,0.5]];portConstraint=eastwest;top=0;left=0;right=0;bottom=0;rounded=1;sketch=0;swimlaneLine=1;strokeColor=default;shadow=0;" parent="-E1fyEVvudLfWsq4Qym8-5" vertex="1">
          <mxGeometry y="120" width="260" height="30" as="geometry" />
        </mxCell>
        <mxCell id="-E1fyEVvudLfWsq4Qym8-16" value="" style="shape=partialRectangle;overflow=hidden;connectable=0;top=0;left=0;bottom=0;right=0;rounded=1;sketch=0;swimlaneLine=1;strokeColor=default;shadow=0;" parent="-E1fyEVvudLfWsq4Qym8-15" vertex="1">
          <mxGeometry width="30" height="30" as="geometry">
            <mxRectangle width="30" height="30" as="alternateBounds" />
          </mxGeometry>
        </mxCell>
        <mxCell id="-E1fyEVvudLfWsq4Qym8-17" value="login_date date NOT NULL" style="shape=partialRectangle;overflow=hidden;connectable=0;top=0;left=0;bottom=0;right=0;align=left;spacingLeft=6;rounded=1;sketch=0;swimlaneLine=1;strokeColor=default;shadow=0;" parent="-E1fyEVvudLfWsq4Qym8-15" vertex="1">
          <mxGeometry x="30" width="230" height="30" as="geometry">
            <mxRectangle width="230" height="30" as="alternateBounds" />
          </mxGeometry>
        </mxCell>
        <mxCell id="-E1fyEVvudLfWsq4Qym8-18" value="" style="shape=partialRectangle;collapsible=0;dropTarget=0;pointerEvents=0;points=[[0,0.5],[1,0.5]];portConstraint=eastwest;top=0;left=0;right=0;bottom=0;rounded=1;sketch=0;swimlaneLine=1;strokeColor=default;shadow=0;" parent="-E1fyEVvudLfWsq4Qym8-5" vertex="1">
          <mxGeometry y="150" width="260" height="30" as="geometry" />
        </mxCell>
        <mxCell id="-E1fyEVvudLfWsq4Qym8-19" value="" style="shape=partialRectangle;overflow=hidden;connectable=0;top=0;left=0;bottom=0;right=0;rounded=1;sketch=0;swimlaneLine=1;strokeColor=default;shadow=0;" parent="-E1fyEVvudLfWsq4Qym8-18" vertex="1">
          <mxGeometry width="30" height="30" as="geometry">
            <mxRectangle width="30" height="30" as="alternateBounds" />
          </mxGeometry>
        </mxCell>
        <mxCell id="-E1fyEVvudLfWsq4Qym8-20" value="logout_date date " style="shape=partialRectangle;overflow=hidden;connectable=0;top=0;left=0;bottom=0;right=0;align=left;spacingLeft=6;rounded=1;sketch=0;swimlaneLine=1;strokeColor=default;shadow=0;" parent="-E1fyEVvudLfWsq4Qym8-18" vertex="1">
          <mxGeometry x="30" width="230" height="30" as="geometry">
            <mxRectangle width="230" height="30" as="alternateBounds" />
          </mxGeometry>
        </mxCell>
        <mxCell id="4qzRG9kLGo3sh1j2NV4k-3" value="0,1" style="text;html=1;align=center;verticalAlign=middle;whiteSpace=wrap;rounded=0;rotation=0;swimlaneLine=1;strokeColor=none;sketch=0;shadow=0;" vertex="1" parent="1">
          <mxGeometry x="-214" y="649" width="60" height="30" as="geometry" />
        </mxCell>
      </root>
    </mxGraphModel>
  </diagram>
</mxfile>
